<svg width="1920" height="9550" viewBox="0 0 1920 9550" fill="none" xmlns="http://www.w3.org/2000/svg">
<path d="M1372.19 8241.6C1344.54 8206.25 1320.42 8180.76 1298.84 8163.49C1277.25 8146.22 1258.18 8137.16 1240.62 8134.7C1205.47 8129.77 1176.66 8151.37 1146.29 8185.84L1146.28 8185.85L923.719 8419.21C882.195 8445.66 846.188 8448.55 813.579 8437.04C780.918 8425.51 751.6 8399.52 723.545 8368.09C706.704 8349.22 690.355 8328.44 674.023 8307.67C663.136 8293.83 652.255 8279.99 641.239 8266.74C613.731 8233.65 585.42 8204.23 554.234 8187.7L553.999 8187.57L553.765 8187.7L280.765 8333.38L280.718 8333.4L280.677 8333.44C197.384 8403.99 147.036 8418.15 108.845 8402.62C89.7207 8394.84 73.5635 8379.6 57.7979 8360.07C46.8842 8346.55 36.1863 8331.02 24.8302 8314.53L24.8291 8314.53L24.624 8314.23L24.5669 8314.15C19.5938 8306.93 14.4952 8299.53 9.19629 8292.04C6.50977 8288.24 3.91504 8284.61 1.4043 8281.16L1.17578 8280.84L0.814453 8280.99L-289.686 8397.32L-289.693 8397.32L-289.7 8397.33C-313.618 8407.75 -336.065 8411.16 -358.921 8408.17C-381.784 8405.17 -405.088 8395.76 -430.707 8380.5C-475.721 8353.68 -527.779 8308.86 -597.055 8249.22L-597.064 8249.21L-597.079 8249.2L-597.207 8249.09C-606.77 8240.86 -616.662 8232.34 -626.908 8223.55C-679.622 8178.25 -731.581 8164.3 -779.869 8168.89C-828.136 8173.48 -872.679 8196.6 -910.599 8225.34C-948.521 8254.08 -979.851 8288.48 -1001.7 8315.68C-1012.62 8329.29 -1021.18 8341.1 -1027 8349.5C-1028.39 8351.51 -1029.62 8353.32 -1030.69 8354.91C-1031.87 8356.67 -1032.86 8358.16 -1033.65 8359.37C-1034.4 8360.52 -1034.97 8361.41 -1035.35 8362.01L-1035.78 8362.7L-1035.89 8362.87L-1035.92 8362.91L-1035.92 8362.92C-1035.92 8362.93 -1035.93 8362.93 -1035.5 8363.19L-1035.93 8362.93L-1036 8363.05V8363.19V9549V9549.5H-1035.5H2823.29H2823.79V9549V8318.77V8317.74L2822.98 8318.37L2823.29 8318.77C2822.98 8318.37 2822.98 8318.38 2822.98 8318.38L2822.97 8318.38L2822.95 8318.4L2822.84 8318.48L2822.42 8318.81C2822.2 8318.97 2821.92 8319.18 2821.58 8319.43C2821.33 8319.62 2821.05 8319.83 2820.73 8320.06C2819.25 8321.14 2817.04 8322.72 2814.18 8324.66C2808.44 8328.56 2800.04 8333.94 2789.41 8339.91C2768.15 8351.83 2737.95 8366.07 2702.19 8375.31C2630.7 8393.79 2537.01 8392.3 2448.14 8312.4C2359.29 8232.37 2305.26 8212.19 2260.79 8222.61C2238.58 8227.81 2218.82 8240.64 2198.36 8257.31C2188.3 8265.5 2178.07 8274.63 2167.28 8284.24L2166.72 8284.75C2155.72 8294.55 2144.15 8304.86 2131.6 8315.21C2106.5 8335.91 2087.05 8347.7 2070.51 8353.26C2054 8358.81 2040.37 8358.17 2026.87 8353.94C2014.87 8350.19 2002.97 8343.61 1989.23 8336.01L1989.22 8336.01C1987.47 8335.04 1985.68 8334.06 1983.87 8333.06C1967.81 8324.23 1949.14 8314.43 1925.12 8306.31C1901.01 8298.15 1882.17 8301.72 1865.98 8311.54C1849.84 8321.34 1836.36 8337.35 1822.9 8354.02L1821.39 8355.89L1819.73 8357.96C1793.79 8390.2 1767.15 8423.31 1720.87 8419.1C1698.73 8417.09 1679.37 8420.61 1660.27 8424.09C1658.4 8424.43 1656.52 8424.77 1654.65 8425.11C1633.7 8428.86 1612.75 8431.89 1588.32 8426.91C1539.46 8416.95 1476.54 8374.86 1372.19 8241.6Z" fill="url(#paint0_linear)"/>
<mask id="mask0" mask-type="alpha" maskUnits="userSpaceOnUse" x="0" y="0" width="1920" height="1393">
<rect width="1920" height="1393" fill="#C4C4C4"/>
</mask>
<g mask="url(#mask0)">
<path d="M1896.69 118.602C1869.04 83.2533 1844.92 57.7621 1823.34 40.4926C1801.75 23.2235 1782.68 14.1557 1765.12 11.6967C1729.97 6.7743 1701.16 28.3671 1670.79 62.8427L1670.78 62.849L1448.22 296.213C1406.7 322.66 1370.69 325.547 1338.08 314.039C1305.42 302.514 1276.1 276.525 1248.04 245.091C1231.2 226.221 1214.86 205.436 1198.52 184.67C1187.64 170.827 1176.75 156.993 1165.74 143.74C1138.23 110.647 1109.92 81.2323 1078.73 64.6962L1078.5 64.5712L1078.26 64.6967L805.265 210.377L805.218 210.402L805.177 210.437C721.884 280.99 671.536 295.147 633.345 279.618C614.221 271.842 598.063 256.596 582.298 237.068C571.384 223.55 560.686 208.018 549.33 191.53L549.329 191.529L549.124 191.23L549.067 191.147C544.094 183.929 538.995 176.53 533.696 169.038C531.01 165.24 528.415 161.614 525.904 158.157L525.676 157.842L525.314 157.987L234.814 274.321L234.807 274.324L234.8 274.327C210.882 284.754 188.435 288.163 165.579 285.168C142.716 282.172 119.412 272.762 93.793 257.499C48.7795 230.682 -3.2793 185.863 -72.5547 126.221L-72.5645 126.213L-72.5791 126.2L-72.7065 126.09C-82.27 117.856 -92.1621 109.34 -102.408 100.55C-155.122 55.2533 -207.081 41.2977 -255.369 45.8895C-303.636 50.4794 -348.179 73.5951 -386.099 102.338C-424.021 131.083 -455.351 165.48 -477.197 192.685C-488.121 206.288 -496.676 218.097 -502.501 226.505C-503.888 228.507 -505.121 230.316 -506.193 231.912C-507.373 233.666 -508.359 235.161 -509.146 236.368C-509.897 237.52 -510.467 238.409 -510.849 239.011L-511.28 239.695L-511.389 239.87L-511.416 239.913L-511.423 239.925C-511.424 239.928 -511.425 239.929 -511 240.192L-511.425 239.929L-511.5 240.05V240.192V1426V1426.5H-511H3347.79H3348.29V1426V195.769V194.745L3347.48 195.375L3347.79 195.769C3347.48 195.375 3347.48 195.375 3347.48 195.376L3347.47 195.381L3347.45 195.402L3347.34 195.483L3346.92 195.807C3346.7 195.971 3346.42 196.181 3346.08 196.433C3345.83 196.618 3345.55 196.827 3345.23 197.057C3343.75 198.142 3341.54 199.716 3338.68 201.663C3332.94 205.556 3324.54 210.941 3313.91 216.905C3292.65 228.833 3262.45 243.071 3226.69 252.312C3155.2 270.79 3061.51 269.296 2972.64 189.404C2883.79 109.366 2829.76 89.1869 2785.29 99.6058C2763.08 104.81 2743.32 117.638 2722.86 134.306C2712.8 142.497 2702.57 151.627 2691.78 161.245L2691.22 161.749C2680.22 171.554 2668.65 181.861 2656.1 192.21C2631 212.907 2611.55 224.696 2595.01 230.259C2578.5 235.815 2564.87 235.168 2551.37 230.945C2539.37 227.19 2527.47 220.615 2513.73 213.015L2513.72 213.012C2511.97 212.042 2510.18 211.055 2508.37 210.056C2492.31 201.232 2473.64 191.432 2449.62 183.308C2425.51 175.151 2406.67 178.718 2390.48 188.538C2374.34 198.335 2360.86 214.349 2347.4 231.019L2345.89 232.891L2344.23 234.956C2318.29 267.204 2291.65 300.31 2245.37 296.103C2223.23 294.091 2203.87 297.615 2184.77 301.091C2182.9 301.432 2181.02 301.773 2179.15 302.108C2158.2 305.858 2137.25 308.894 2112.82 303.912C2063.96 293.947 2001.04 251.862 1896.69 118.602Z" fill="url(#paint1_linear)"/>
<path d="M3347.79 195.269C3347.79 195.269 3150.35 349.338 2972.31 189.275C2794.62 29.2119 2756.9 109.243 2656.42 192.095C2555.93 274.947 2545.36 215.717 2449.46 183.281C2353.56 150.846 2342.28 304.915 2245.33 296.101C2148.37 287.287 2105.01 384.947 1896.29 118.41C1785.77 -22.9219 1731.89 -6.2635 1671.16 62.6793L1660 74M-511 239.691C-511 239.691 -313.213 -80.4348 -102.733 100.429C66.3143 245.449 139.03 316.122 235 274.285L252.5 267M1078.5 64.6373C1200.12 129.129 1278.4 390.402 1437.63 302.588M805.5 210.318C648.706 343.129 607.897 276.806 545.312 186.081" stroke="#79B7EA" stroke-miterlimit="10"/>
</g>
<defs>
<linearGradient id="paint0_linear" x1="511.5" y1="6740.5" x2="504.5" y2="9554" gradientUnits="userSpaceOnUse">
<stop stop-color="#E6ECFB"/>
<stop offset="1" stop-color="#F2F2F6"/>
</linearGradient>
<linearGradient id="paint1_linear" x1="1036" y1="-1382.5" x2="1029" y2="1431" gradientUnits="userSpaceOnUse">
<stop stop-color="#E6ECFB"/>
<stop offset="1" stop-color="#F2F2F6"/>
</linearGradient>
</defs>
</svg>
